<?xml version="1.0" standalone="no"?>
<!DOCTYPE svg PUBLIC "-//W3C//DTD SVG 20010904//EN"
 "http://www.w3.org/TR/2001/REC-SVG-20010904/DTD/svg10.dtd">
<svg version="1.0" xmlns="http://www.w3.org/2000/svg"
 width="325.000000pt" height="325.000000pt" viewBox="0 0 325.000000 325.000000"
 preserveAspectRatio="xMidYMid meet">
<metadata>
Created by potrace 1.15, written by Peter Selinger 2001-2017
</metadata>
<g transform="translate(0.000000,325.000000) scale(0.100000,-0.100000)"
fill="#000000" stroke="none">
<path d="M410 1875 l0 -1375 125 0 125 0 0 -125 0 -125 125 0 125 0 0 -125 0
-125 653 0 652 0 308 308 307 307 0 1068 0 1067 -125 0 -125 0 0 125 0 125
-125 0 -125 0 0 125 0 125 -960 0 -960 0 0 -1375z m1790 1185 l0 -60 -770 0
-770 0 0 -1185 0 -1185 -60 0 -60 0 0 1245 0 1245 830 0 830 0 0 -60z m250
-250 l0 -60 -770 0 -770 0 0 -1185 0 -1185 -60 0 -60 0 0 1245 0 1245 830 0
830 0 0 -60z m250 -1185 l0 -995 -250 0 -250 0 0 -250 0 -250 -580 0 -580 0 0
1245 0 1245 830 0 830 0 0 -995z m-210 -1148 c-14 -13 -55 -52 -92 -87 l-68
-63 0 86 0 87 92 0 93 0 -25 -23z"/>
<path d="M1530 2275 l0 -25 485 0 485 0 0 25 0 25 -485 0 -485 0 0 -25z"/>
<path d="M1530 2105 l0 -25 485 0 485 0 0 25 0 25 -485 0 -485 0 0 -25z"/>
<path d="M1530 1935 l0 -25 485 0 485 0 0 25 0 25 -485 0 -485 0 0 -25z"/>
<path d="M1530 1775 l0 -25 485 0 485 0 0 25 0 25 -485 0 -485 0 0 -25z"/>
<path d="M1530 1605 l0 -25 485 0 485 0 0 25 0 25 -485 0 -485 0 0 -25z"/>
<path d="M1530 1435 l0 -25 485 0 485 0 0 25 0 25 -485 0 -485 0 0 -25z"/>
<path d="M1530 1275 l0 -25 485 0 485 0 0 25 0 25 -485 0 -485 0 0 -25z"/>
<path d="M1530 1105 l0 -25 485 0 485 0 0 25 0 25 -485 0 -485 0 0 -25z"/>
<path d="M1530 935 l0 -25 485 0 485 0 0 25 0 25 -485 0 -485 0 0 -25z"/>
<path d="M1530 775 l0 -25 485 0 485 0 0 25 0 25 -485 0 -485 0 0 -25z"/>
</g>
</svg>
